# Blender v2.79 (sub 0) OBJ File: 'golf delik2.blend'
# www.blender.org
mtllib golf delik2.mtl
o Cone_Cone.001
v 0.676006 1.414380 -1.664186
v 0.676006 1.734380 -2.524186
v 0.897398 1.414380 -1.638309
v 1.095727 1.734380 -2.475127
v 1.106854 1.414380 -1.562073
v 1.492821 1.734380 -2.330597
v 1.293082 1.414380 -1.439588
v 1.845880 1.734380 -2.098387
v 1.446045 1.414380 -1.277458
v 2.135871 1.734380 -1.791014
v 1.557494 1.414380 -1.084422
v 2.347160 1.734380 -1.425051
v 1.621422 1.414380 -0.870888
v 2.468357 1.734380 -1.020225
v 1.634382 1.414380 -0.648366
v 2.492927 1.734380 -0.598362
v 1.595676 1.414380 -0.428854
v 2.419547 1.734380 -0.182203
v 1.507391 1.414380 -0.224185
v 2.252173 1.734380 0.205815
v 1.374285 1.414380 -0.045393
v 1.999826 1.734380 0.544774
v 1.203535 1.414380 0.097883
v 1.676113 1.734380 0.816403
v 1.004346 1.414380 0.197919
v 1.298483 1.734380 1.006055
v 0.787455 1.414380 0.249323
v 0.887295 1.734380 1.103508
v 0.564557 1.414380 0.249323
v 0.464717 1.734380 1.103508
v 0.347667 1.414380 0.197919
v 0.053529 1.734380 1.006055
v 0.148477 1.414380 0.097883
v -0.324101 1.734380 0.816402
v -0.022273 1.414380 -0.045394
v -0.647814 1.734380 0.544774
v -0.155378 1.414380 -0.224186
v -0.900160 1.734380 0.205814
v -0.243664 1.414380 -0.428854
v -1.067535 1.734380 -0.182203
v -0.282370 1.414380 -0.648366
v -1.140915 1.734380 -0.598361
v -0.269409 1.414380 -0.870887
v -1.116344 1.734380 -1.020224
v -0.205482 1.414380 -1.084422
v -0.995148 1.734380 -1.425050
v -0.094033 1.414380 -1.277457
v -0.783859 1.734380 -1.791013
v 0.058929 1.414380 -1.439588
v -0.493869 1.734380 -2.098385
v 0.245158 1.414380 -1.562072
v -0.140810 1.734380 -2.330596
v 0.454614 1.414380 -1.638308
v 0.256283 1.734380 -2.475127
v 0.676006 1.423752 -1.660699
v 0.676006 1.743752 -2.520699
v 0.896593 1.423752 -1.634916
v 1.094923 1.743752 -2.471734
v 1.105289 1.423752 -1.558957
v 1.491256 1.743752 -2.327481
v 1.290841 1.423752 -1.436917
v 1.843638 1.743752 -2.095715
v 1.443248 1.423752 -1.275376
v 2.133074 1.743752 -1.788932
v 1.554292 1.423752 -1.083041
v 2.343958 1.743752 -1.423670
v 1.617988 1.423752 -0.870282
v 2.464922 1.743752 -1.019620
v 1.630901 1.423752 -0.648569
v 2.489446 1.743752 -0.598564
v 1.592336 1.423752 -0.429854
v 2.416207 1.743752 -0.183203
v 1.504371 1.423752 -0.225929
v 2.249153 1.743752 0.204071
v 1.371749 1.423752 -0.047786
v 1.997290 1.743752 0.542381
v 1.201619 1.423752 0.094969
v 1.674196 1.743752 0.813489
v 1.003153 1.423752 0.194643
v 1.297290 1.743752 1.002779
v 0.787051 1.423752 0.245860
v 0.886890 1.743752 1.100045
v 0.564962 1.423752 0.245860
v 0.465121 1.743752 1.100045
v 0.348859 1.423752 0.194643
v 0.054722 1.743752 1.002778
v 0.150394 1.423752 0.094969
v -0.322184 1.743752 0.813489
v -0.019736 1.423752 -0.047787
v -0.645278 1.743752 0.542381
v -0.152358 1.423752 -0.225929
v -0.897140 1.743752 0.204071
v -0.240323 1.423752 -0.429854
v -1.064194 1.743752 -0.183204
v -0.278888 1.423752 -0.648569
v -1.137433 1.743752 -0.598564
v -0.265975 1.423752 -0.870282
v -1.112910 1.743752 -1.019619
v -0.202280 1.423752 -1.083041
v -0.991946 1.743752 -1.423669
v -0.091236 1.423752 -1.275375
v -0.781062 1.743752 -1.788931
v 0.061171 1.423752 -1.436916
v -0.491627 1.743752 -2.095714
v 0.246723 1.423752 -1.558956
v -0.139245 1.743752 -2.327480
v 0.455418 1.423752 -1.634915
v 0.257087 1.743752 -2.471734
vn 0.0407 -0.9364 -0.3484
vn 0.1200 -0.9364 -0.3297
vn 0.1928 -0.9364 -0.2931
vn 0.2552 -0.9364 -0.2407
vn 0.3038 -0.9364 -0.1754
vn 0.3361 -0.9364 -0.1006
vn 0.3502 -0.9364 -0.0204
vn 0.3455 -0.9364 0.0609
vn 0.3221 -0.9364 0.1390
vn 0.2814 -0.9364 0.2095
vn 0.2255 -0.9364 0.2687
vn 0.1574 -0.9364 0.3135
vn 0.0809 -0.9364 0.3414
vn 0.0000 -0.9364 0.3508
vn -0.0809 -0.9364 0.3414
vn -0.1574 -0.9364 0.3135
vn -0.2255 -0.9364 0.2687
vn -0.2814 -0.9364 0.2095
vn -0.3221 -0.9364 0.1390
vn -0.3455 -0.9364 0.0609
vn -0.3502 -0.9364 -0.0204
vn -0.3361 -0.9364 -0.1006
vn -0.3038 -0.9364 -0.1754
vn -0.2552 -0.9364 -0.2407
vn -0.1928 -0.9364 -0.2931
vn -0.1200 -0.9364 -0.3297
vn -0.0407 -0.9364 -0.3484
vn -0.0407 0.9364 0.3484
vn -0.1200 0.9364 0.3297
vn -0.1928 0.9364 0.2931
vn -0.2552 0.9364 0.2407
vn -0.3038 0.9364 0.1754
vn -0.3361 0.9364 0.1006
vn -0.3502 0.9364 0.0204
vn -0.3455 0.9364 -0.0609
vn -0.3221 0.9364 -0.1390
vn -0.2814 0.9364 -0.2095
vn -0.2255 0.9364 -0.2687
vn -0.1574 0.9364 -0.3135
vn -0.0809 0.9364 -0.3414
vn 0.0000 0.9364 -0.3508
vn 0.0809 0.9364 -0.3414
vn 0.1574 0.9364 -0.3135
vn 0.2255 0.9364 -0.2687
vn 0.2814 0.9364 -0.2095
vn 0.3221 0.9364 -0.1390
vn 0.3455 0.9364 -0.0609
vn 0.3502 0.9364 0.0204
vn 0.3361 0.9364 0.1006
vn 0.3038 0.9364 0.1754
vn 0.2552 0.9364 0.2407
vn 0.1928 0.9364 0.2931
vn 0.1200 0.9364 0.3297
vn 0.0407 0.9364 0.3484
vn -0.1089 -0.3466 0.9317
vn 0.1089 0.3466 -0.9317
vn -0.3208 -0.3467 0.8814
vn 0.3208 0.3467 -0.8814
vn -0.5154 -0.3467 0.7837
vn 0.5154 0.3467 -0.7837
vn -0.6823 -0.3467 0.6437
vn 0.6823 0.3466 -0.6437
vn -0.8123 -0.3467 0.4690
vn 0.8123 0.3466 -0.4690
vn -0.8986 -0.3467 0.2690
vn 0.8986 0.3466 -0.2690
vn -0.9364 -0.3467 0.0545
vn 0.9364 0.3466 -0.0545
vn -0.9237 -0.3467 -0.1629
vn 0.9237 0.3466 0.1629
vn -0.8613 -0.3466 -0.3715
vn 0.8613 0.3467 0.3715
vn -0.7524 -0.3466 -0.5601
vn 0.7524 0.3466 0.5601
vn -0.6029 -0.3467 -0.7185
vn 0.6029 0.3466 0.7185
vn -0.4210 -0.3467 -0.8382
vn 0.4210 0.3467 0.8382
vn -0.2163 -0.3466 -0.9127
vn 0.2163 0.3466 0.9127
vn 0.0000 -0.3467 -0.9380
vn 0.0000 0.3466 0.9380
vn 0.2163 -0.3466 -0.9127
vn -0.2163 0.3466 0.9127
vn 0.4210 -0.3467 -0.8382
vn -0.4210 0.3467 0.8382
vn 0.6029 -0.3467 -0.7185
vn -0.6029 0.3467 0.7185
vn 0.7524 -0.3467 -0.5601
vn -0.7524 0.3467 0.5601
vn 0.8613 -0.3467 -0.3715
vn -0.8613 0.3467 0.3715
vn 0.9237 -0.3467 -0.1629
vn -0.9237 0.3466 0.1629
vn 0.9364 -0.3467 0.0545
vn -0.9364 0.3467 -0.0545
vn 0.8986 -0.3467 0.2690
vn -0.8986 0.3466 -0.2690
vn 0.8123 -0.3466 0.4690
vn -0.8123 0.3466 -0.4690
vn 0.6823 -0.3466 0.6437
vn -0.6823 0.3466 -0.6437
vn 0.5154 -0.3467 0.7837
vn -0.5154 0.3466 -0.7837
vn 0.3208 -0.3466 0.8814
vn -0.3208 0.3466 -0.8814
vn 0.1089 -0.3466 0.9317
vn -0.1089 0.3466 -0.9317
usemtl None
s off
f 1//1 2//1 4//1 3//1
f 3//2 4//2 6//2 5//2
f 5//3 6//3 8//3 7//3
f 7//4 8//4 10//4 9//4
f 9//5 10//5 12//5 11//5
f 11//6 12//6 14//6 13//6
f 13//7 14//7 16//7 15//7
f 15//8 16//8 18//8 17//8
f 17//9 18//9 20//9 19//9
f 19//10 20//10 22//10 21//10
f 21//11 22//11 24//11 23//11
f 23//12 24//12 26//12 25//12
f 25//13 26//13 28//13 27//13
f 27//14 28//14 30//14 29//14
f 29//15 30//15 32//15 31//15
f 31//16 32//16 34//16 33//16
f 33//17 34//17 36//17 35//17
f 35//18 36//18 38//18 37//18
f 37//19 38//19 40//19 39//19
f 39//20 40//20 42//20 41//20
f 41//21 42//21 44//21 43//21
f 43//22 44//22 46//22 45//22
f 45//23 46//23 48//23 47//23
f 47//24 48//24 50//24 49//24
f 49//25 50//25 52//25 51//25
f 51//26 52//26 54//26 53//26
f 53//27 54//27 2//27 1//27
f 55//28 57//28 58//28 56//28
f 57//29 59//29 60//29 58//29
f 59//30 61//30 62//30 60//30
f 61//31 63//31 64//31 62//31
f 63//32 65//32 66//32 64//32
f 65//33 67//33 68//33 66//33
f 67//34 69//34 70//34 68//34
f 69//35 71//35 72//35 70//35
f 71//36 73//36 74//36 72//36
f 73//37 75//37 76//37 74//37
f 75//38 77//38 78//38 76//38
f 77//39 79//39 80//39 78//39
f 79//40 81//40 82//40 80//40
f 81//41 83//41 84//41 82//41
f 83//42 85//42 86//42 84//42
f 85//43 87//43 88//43 86//43
f 87//44 89//44 90//44 88//44
f 89//45 91//45 92//45 90//45
f 91//46 93//46 94//46 92//46
f 93//47 95//47 96//47 94//47
f 95//48 97//48 98//48 96//48
f 97//49 99//49 100//49 98//49
f 99//50 101//50 102//50 100//50
f 101//51 103//51 104//51 102//51
f 103//52 105//52 106//52 104//52
f 105//53 107//53 108//53 106//53
f 107//54 55//54 56//54 108//54
f 1//55 3//55 57//55 55//55
f 4//56 2//56 56//56 58//56
f 3//57 5//57 59//57 57//57
f 6//58 4//58 58//58 60//58
f 5//59 7//59 61//59 59//59
f 8//60 6//60 60//60 62//60
f 7//61 9//61 63//61 61//61
f 10//62 8//62 62//62 64//62
f 9//63 11//63 65//63 63//63
f 12//64 10//64 64//64 66//64
f 11//65 13//65 67//65 65//65
f 14//66 12//66 66//66 68//66
f 13//67 15//67 69//67 67//67
f 16//68 14//68 68//68 70//68
f 15//69 17//69 71//69 69//69
f 18//70 16//70 70//70 72//70
f 17//71 19//71 73//71 71//71
f 20//72 18//72 72//72 74//72
f 19//73 21//73 75//73 73//73
f 22//74 20//74 74//74 76//74
f 21//75 23//75 77//75 75//75
f 24//76 22//76 76//76 78//76
f 23//77 25//77 79//77 77//77
f 26//78 24//78 78//78 80//78
f 25//79 27//79 81//79 79//79
f 28//80 26//80 80//80 82//80
f 27//81 29//81 83//81 81//81
f 30//82 28//82 82//82 84//82
f 29//83 31//83 85//83 83//83
f 32//84 30//84 84//84 86//84
f 31//85 33//85 87//85 85//85
f 34//86 32//86 86//86 88//86
f 33//87 35//87 89//87 87//87
f 36//88 34//88 88//88 90//88
f 35//89 37//89 91//89 89//89
f 38//90 36//90 90//90 92//90
f 37//91 39//91 93//91 91//91
f 40//92 38//92 92//92 94//92
f 39//93 41//93 95//93 93//93
f 42//94 40//94 94//94 96//94
f 41//95 43//95 97//95 95//95
f 44//96 42//96 96//96 98//96
f 43//97 45//97 99//97 97//97
f 46//98 44//98 98//98 100//98
f 45//99 47//99 101//99 99//99
f 48//100 46//100 100//100 102//100
f 47//101 49//101 103//101 101//101
f 50//102 48//102 102//102 104//102
f 49//103 51//103 105//103 103//103
f 52//104 50//104 104//104 106//104
f 51//105 53//105 107//105 105//105
f 54//106 52//106 106//106 108//106
f 53//107 1//107 55//107 107//107
f 2//108 54//108 108//108 56//108
o Cylinder_Cylinder.001
v 0.688913 -0.502816 -1.722074
v 0.688913 1.497184 -1.722074
v 0.884003 -0.502816 -1.702859
v 0.884003 1.497184 -1.702859
v 1.071596 -0.502816 -1.645953
v 1.071596 1.497184 -1.645953
v 1.244483 -0.502816 -1.553543
v 1.244483 1.497184 -1.553543
v 1.396019 -0.502816 -1.429180
v 1.396019 1.497184 -1.429180
v 1.520382 -0.502816 -1.277644
v 1.520382 1.497184 -1.277644
v 1.612792 -0.502816 -1.104757
v 1.612792 1.497184 -1.104757
v 1.669698 -0.502816 -0.917164
v 1.669698 1.497184 -0.917164
v 1.688913 -0.502816 -0.722074
v 1.688913 1.497184 -0.722074
v 1.669698 -0.502816 -0.526983
v 1.669698 1.497184 -0.526983
v 1.612792 -0.502816 -0.339390
v 1.612792 1.497184 -0.339390
v 1.520382 -0.502816 -0.166503
v 1.520382 1.497184 -0.166503
v 1.396019 -0.502816 -0.014967
v 1.396019 1.497184 -0.014967
v 1.244483 -0.502816 0.109396
v 1.244483 1.497184 0.109396
v 1.071596 -0.502816 0.201806
v 1.071596 1.497184 0.201806
v 0.884003 -0.502816 0.258712
v 0.884003 1.497184 0.258712
v 0.688912 -0.502816 0.277927
v 0.688912 1.497184 0.277927
v 0.493822 -0.502816 0.258712
v 0.493822 1.497184 0.258712
v 0.306229 -0.502816 0.201806
v 0.306229 1.497184 0.201806
v 0.133342 -0.502816 0.109396
v 0.133342 1.497184 0.109396
v -0.018195 -0.502816 -0.014967
v -0.018195 1.497184 -0.014967
v -0.142557 -0.502816 -0.166504
v -0.142557 1.497184 -0.166504
v -0.234967 -0.502816 -0.339391
v -0.234967 1.497184 -0.339391
v -0.291873 -0.502816 -0.526984
v -0.291873 1.497184 -0.526984
v -0.311087 -0.502816 -0.722074
v -0.311087 1.497184 -0.722074
v -0.291872 -0.502816 -0.917165
v -0.291872 1.497184 -0.917165
v -0.234966 -0.502816 -1.104758
v -0.234966 1.497184 -1.104758
v -0.142556 -0.502816 -1.277645
v -0.142556 1.497184 -1.277645
v -0.018193 -0.502816 -1.429181
v -0.018193 1.497184 -1.429181
v 0.133344 -0.502816 -1.553544
v 0.133344 1.497184 -1.553544
v 0.306231 -0.502816 -1.645954
v 0.306231 1.497184 -1.645954
v 0.493824 -0.502816 -1.702859
v 0.493824 1.497184 -1.702859
v 0.688913 -0.502816 -1.712074
v 0.688913 1.497184 -1.712074
v 0.882052 -0.502816 -1.693051
v 0.882052 1.497184 -1.693051
v 1.067769 -0.502816 -1.636714
v 1.067769 1.497184 -1.636714
v 1.238927 -0.502816 -1.545229
v 1.238927 1.497184 -1.545229
v 1.388949 -0.502816 -1.422109
v 1.388949 1.497184 -1.422109
v 1.512068 -0.502816 -1.272088
v 1.512068 1.497184 -1.272088
v 1.603554 -0.502816 -1.100930
v 1.603554 1.497184 -1.100930
v 1.659890 -0.502816 -0.915213
v 1.659890 1.497184 -0.915213
v 1.678913 -0.502816 -0.722074
v 1.678913 1.497184 -0.722074
v 1.659890 -0.502816 -0.528934
v 1.659890 1.497184 -0.528934
v 1.603554 -0.502816 -0.343217
v 1.603554 1.497184 -0.343217
v 1.512068 -0.502816 -0.172059
v 1.512068 1.497184 -0.172059
v 1.388949 -0.502816 -0.022038
v 1.388949 1.497184 -0.022038
v 1.238927 -0.502816 0.101082
v 1.238927 1.497184 0.101082
v 1.067769 -0.502816 0.192568
v 1.067769 1.497184 0.192568
v 0.882052 -0.502816 0.248904
v 0.882052 1.497184 0.248904
v 0.688912 -0.502816 0.267927
v 0.688912 1.497184 0.267927
v 0.495773 -0.502816 0.248904
v 0.495773 1.497184 0.248904
v 0.310056 -0.502816 0.192567
v 0.310056 1.497184 0.192567
v 0.138898 -0.502816 0.101081
v 0.138898 1.497184 0.101081
v -0.011124 -0.502816 -0.022038
v -0.011124 1.497184 -0.022038
v -0.134243 -0.502816 -0.172059
v -0.134243 1.497184 -0.172059
v -0.225729 -0.502816 -0.343218
v -0.225729 1.497184 -0.343218
v -0.282065 -0.502816 -0.528935
v -0.282065 1.497184 -0.528935
v -0.301088 -0.502816 -0.722074
v -0.301088 1.497184 -0.722074
v -0.282065 -0.502816 -0.915214
v -0.282065 1.497184 -0.915214
v -0.225728 -0.502816 -1.100931
v -0.225728 1.497184 -1.100931
v -0.134242 -0.502816 -1.272089
v -0.134242 1.497184 -1.272089
v -0.011122 -0.502816 -1.422110
v -0.011122 1.497184 -1.422110
v 0.138899 -0.502816 -1.545229
v 0.138899 1.497184 -1.545229
v 0.310057 -0.502816 -1.636715
v 0.310057 1.497184 -1.636715
v 0.495775 -0.502816 -1.693051
v 0.495775 1.497184 -1.693051
vn 0.0980 0.0000 -0.9952
vn 0.2903 0.0000 -0.9569
vn 0.4714 0.0000 -0.8819
vn 0.6344 0.0000 -0.7730
vn 0.7730 0.0000 -0.6344
vn 0.8819 0.0000 -0.4714
vn 0.9569 0.0000 -0.2903
vn 0.9952 0.0000 -0.0980
vn 0.9952 0.0000 0.0980
vn 0.9569 0.0000 0.2903
vn 0.8819 0.0000 0.4714
vn 0.7730 0.0000 0.6344
vn 0.6344 0.0000 0.7730
vn 0.4714 0.0000 0.8819
vn 0.2903 0.0000 0.9569
vn 0.0980 0.0000 0.9952
vn -0.0980 0.0000 0.9952
vn -0.2903 0.0000 0.9569
vn -0.4714 0.0000 0.8819
vn -0.6344 0.0000 0.7730
vn -0.7730 0.0000 0.6344
vn -0.8819 0.0000 0.4714
vn -0.9569 0.0000 0.2903
vn -0.9952 0.0000 0.0980
vn -0.9952 0.0000 -0.0980
vn -0.9569 0.0000 -0.2903
vn -0.8819 0.0000 -0.4714
vn -0.7730 0.0000 -0.6344
vn -0.6344 0.0000 -0.7730
vn -0.4714 0.0000 -0.8819
vn -0.2903 0.0000 -0.9569
vn -0.0980 0.0000 -0.9952
vn 0.0000 -1.0000 0.0000
vn 0.0000 1.0000 -0.0000
usemtl None
s off
f 109//109 110//109 112//109 111//109
f 111//110 112//110 114//110 113//110
f 113//111 114//111 116//111 115//111
f 115//112 116//112 118//112 117//112
f 117//113 118//113 120//113 119//113
f 119//114 120//114 122//114 121//114
f 121//115 122//115 124//115 123//115
f 123//116 124//116 126//116 125//116
f 125//117 126//117 128//117 127//117
f 127//118 128//118 130//118 129//118
f 129//119 130//119 132//119 131//119
f 131//120 132//120 134//120 133//120
f 133//121 134//121 136//121 135//121
f 135//122 136//122 138//122 137//122
f 137//123 138//123 140//123 139//123
f 139//124 140//124 142//124 141//124
f 141//125 142//125 144//125 143//125
f 143//126 144//126 146//126 145//126
f 145//127 146//127 148//127 147//127
f 147//128 148//128 150//128 149//128
f 149//129 150//129 152//129 151//129
f 151//130 152//130 154//130 153//130
f 153//131 154//131 156//131 155//131
f 155//132 156//132 158//132 157//132
f 157//133 158//133 160//133 159//133
f 159//134 160//134 162//134 161//134
f 161//135 162//135 164//135 163//135
f 163//136 164//136 166//136 165//136
f 165//137 166//137 168//137 167//137
f 167//138 168//138 170//138 169//138
f 169//139 170//139 172//139 171//139
f 171//140 172//140 110//140 109//140
f 173//125 175//125 176//125 174//125
f 175//126 177//126 178//126 176//126
f 177//127 179//127 180//127 178//127
f 179//128 181//128 182//128 180//128
f 181//129 183//129 184//129 182//129
f 183//130 185//130 186//130 184//130
f 185//131 187//131 188//131 186//131
f 187//132 189//132 190//132 188//132
f 189//133 191//133 192//133 190//133
f 191//134 193//134 194//134 192//134
f 193//135 195//135 196//135 194//135
f 195//136 197//136 198//136 196//136
f 197//137 199//137 200//137 198//137
f 199//138 201//138 202//138 200//138
f 201//139 203//139 204//139 202//139
f 203//140 205//140 206//140 204//140
f 205//109 207//109 208//109 206//109
f 207//110 209//110 210//110 208//110
f 209//111 211//111 212//111 210//111
f 211//112 213//112 214//112 212//112
f 213//113 215//113 216//113 214//113
f 215//114 217//114 218//114 216//114
f 217//115 219//115 220//115 218//115
f 219//116 221//116 222//116 220//116
f 221//117 223//117 224//117 222//117
f 223//118 225//118 226//118 224//118
f 225//119 227//119 228//119 226//119
f 227//120 229//120 230//120 228//120
f 229//121 231//121 232//121 230//121
f 231//122 233//122 234//122 232//122
f 233//123 235//123 236//123 234//123
f 235//124 173//124 174//124 236//124
f 109//141 111//141 175//141 173//141
f 112//142 110//142 174//142 176//142
f 111//141 113//141 177//141 175//141
f 114//142 112//142 176//142 178//142
f 113//141 115//141 179//141 177//141
f 116//142 114//142 178//142 180//142
f 115//141 117//141 181//141 179//141
f 118//142 116//142 180//142 182//142
f 117//141 119//141 183//141 181//141
f 120//142 118//142 182//142 184//142
f 119//141 121//141 185//141 183//141
f 122//142 120//142 184//142 186//142
f 121//141 123//141 187//141 185//141
f 124//142 122//142 186//142 188//142
f 123//141 125//141 189//141 187//141
f 126//142 124//142 188//142 190//142
f 125//141 127//141 191//141 189//141
f 128//142 126//142 190//142 192//142
f 127//141 129//141 193//141 191//141
f 130//142 128//142 192//142 194//142
f 129//141 131//141 195//141 193//141
f 132//142 130//142 194//142 196//142
f 131//141 133//141 197//141 195//141
f 134//142 132//142 196//142 198//142
f 133//141 135//141 199//141 197//141
f 136//142 134//142 198//142 200//142
f 135//141 137//141 201//141 199//141
f 138//142 136//142 200//142 202//142
f 137//141 139//141 203//141 201//141
f 140//142 138//142 202//142 204//142
f 139//141 141//141 205//141 203//141
f 142//142 140//142 204//142 206//142
f 141//141 143//141 207//141 205//141
f 144//142 142//142 206//142 208//142
f 143//141 145//141 209//141 207//141
f 146//142 144//142 208//142 210//142
f 145//141 147//141 211//141 209//141
f 148//142 146//142 210//142 212//142
f 147//141 149//141 213//141 211//141
f 150//142 148//142 212//142 214//142
f 149//141 151//141 215//141 213//141
f 152//142 150//142 214//142 216//142
f 151//141 153//141 217//141 215//141
f 154//142 152//142 216//142 218//142
f 153//141 155//141 219//141 217//141
f 156//142 154//142 218//142 220//142
f 155//141 157//141 221//141 219//141
f 158//142 156//142 220//142 222//142
f 157//141 159//141 223//141 221//141
f 160//142 158//142 222//142 224//142
f 159//141 161//141 225//141 223//141
f 162//142 160//142 224//142 226//142
f 161//141 163//141 227//141 225//141
f 164//142 162//142 226//142 228//142
f 163//141 165//141 229//141 227//141
f 166//142 164//142 228//142 230//142
f 165//141 167//141 231//141 229//141
f 168//142 166//142 230//142 232//142
f 167//141 169//141 233//141 231//141
f 170//142 168//142 232//142 234//142
f 169//141 171//141 235//141 233//141
f 172//142 170//142 234//142 236//142
f 171//141 109//141 173//141 235//141
f 110//142 172//142 236//142 174//142
