# Blender v2.79 (sub 0) OBJ File: ''
# www.blender.org
mtllib untitled.mtl
o Cylinder_Cylinder.001
v 0.688913 -0.502816 -1.722074
v 0.688913 1.497184 -1.722074
v 0.884003 -0.502816 -1.702859
v 0.884003 1.497184 -1.702859
v 1.071596 -0.502816 -1.645953
v 1.071596 1.497184 -1.645953
v 1.244483 -0.502816 -1.553543
v 1.244483 1.497184 -1.553543
v 1.396019 -0.502816 -1.429180
v 1.396019 1.497184 -1.429180
v 1.520382 -0.502816 -1.277644
v 1.520382 1.497184 -1.277644
v 1.612792 -0.502816 -1.104757
v 1.612792 1.497184 -1.104757
v 1.669698 -0.502816 -0.917164
v 1.669698 1.497184 -0.917164
v 1.688913 -0.502816 -0.722074
v 1.688913 1.497184 -0.722074
v 1.669698 -0.502816 -0.526983
v 1.669698 1.497184 -0.526983
v 1.612792 -0.502816 -0.339390
v 1.612792 1.497184 -0.339390
v 1.520382 -0.502816 -0.166503
v 1.520382 1.497184 -0.166503
v 1.396019 -0.502816 -0.014967
v 1.396019 1.497184 -0.014967
v 1.244483 -0.502816 0.109396
v 1.244483 1.497184 0.109396
v 1.071596 -0.502816 0.201806
v 1.071596 1.497184 0.201806
v 0.884003 -0.502816 0.258712
v 0.884003 1.497184 0.258712
v 0.688912 -0.502816 0.277927
v 0.688912 1.497184 0.277927
v 0.493822 -0.502816 0.258712
v 0.493822 1.497184 0.258712
v 0.306229 -0.502816 0.201806
v 0.306229 1.497184 0.201806
v 0.133342 -0.502816 0.109396
v 0.133342 1.497184 0.109396
v -0.018195 -0.502816 -0.014967
v -0.018195 1.497184 -0.014967
v -0.142557 -0.502816 -0.166504
v -0.142557 1.497184 -0.166504
v -0.234967 -0.502816 -0.339391
v -0.234967 1.497184 -0.339391
v -0.291873 -0.502816 -0.526984
v -0.291873 1.497184 -0.526984
v -0.311087 -0.502816 -0.722074
v -0.311087 1.497184 -0.722074
v -0.291872 -0.502816 -0.917165
v -0.291872 1.497184 -0.917165
v -0.234966 -0.502816 -1.104758
v -0.234966 1.497184 -1.104758
v -0.142556 -0.502816 -1.277645
v -0.142556 1.497184 -1.277645
v -0.018193 -0.502816 -1.429181
v -0.018193 1.497184 -1.429181
v 0.133344 -0.502816 -1.553544
v 0.133344 1.497184 -1.553544
v 0.306231 -0.502816 -1.645954
v 0.306231 1.497184 -1.645954
v 0.493824 -0.502816 -1.702859
v 0.493824 1.497184 -1.702859
v 0.688913 -0.502816 -1.712074
v 0.688913 1.497184 -1.712074
v 0.882052 -0.502816 -1.693051
v 0.882052 1.497184 -1.693051
v 1.067769 -0.502816 -1.636714
v 1.067769 1.497184 -1.636714
v 1.238927 -0.502816 -1.545229
v 1.238927 1.497184 -1.545229
v 1.388949 -0.502816 -1.422109
v 1.388949 1.497184 -1.422109
v 1.512068 -0.502816 -1.272088
v 1.512068 1.497184 -1.272088
v 1.603554 -0.502816 -1.100930
v 1.603554 1.497184 -1.100930
v 1.659890 -0.502816 -0.915213
v 1.659890 1.497184 -0.915213
v 1.678913 -0.502816 -0.722074
v 1.678913 1.497184 -0.722074
v 1.659890 -0.502816 -0.528934
v 1.659890 1.497184 -0.528934
v 1.603554 -0.502816 -0.343217
v 1.603554 1.497184 -0.343217
v 1.512068 -0.502816 -0.172059
v 1.512068 1.497184 -0.172059
v 1.388949 -0.502816 -0.022038
v 1.388949 1.497184 -0.022038
v 1.238927 -0.502816 0.101082
v 1.238927 1.497184 0.101082
v 1.067769 -0.502816 0.192568
v 1.067769 1.497184 0.192568
v 0.882052 -0.502816 0.248904
v 0.882052 1.497184 0.248904
v 0.688912 -0.502816 0.267927
v 0.688912 1.497184 0.267927
v 0.495773 -0.502816 0.248904
v 0.495773 1.497184 0.248904
v 0.310056 -0.502816 0.192567
v 0.310056 1.497184 0.192567
v 0.138898 -0.502816 0.101081
v 0.138898 1.497184 0.101081
v -0.011124 -0.502816 -0.022038
v -0.011124 1.497184 -0.022038
v -0.134243 -0.502816 -0.172059
v -0.134243 1.497184 -0.172059
v -0.225729 -0.502816 -0.343218
v -0.225729 1.497184 -0.343218
v -0.282065 -0.502816 -0.528935
v -0.282065 1.497184 -0.528935
v -0.301088 -0.502816 -0.722074
v -0.301088 1.497184 -0.722074
v -0.282065 -0.502816 -0.915214
v -0.282065 1.497184 -0.915214
v -0.225728 -0.502816 -1.100931
v -0.225728 1.497184 -1.100931
v -0.134242 -0.502816 -1.272089
v -0.134242 1.497184 -1.272089
v -0.011122 -0.502816 -1.422110
v -0.011122 1.497184 -1.422110
v 0.138899 -0.502816 -1.545229
v 0.138899 1.497184 -1.545229
v 0.310057 -0.502816 -1.636715
v 0.310057 1.497184 -1.636715
v 0.495775 -0.502816 -1.693051
v 0.495775 1.497184 -1.693051
vn 0.0980 0.0000 -0.9952
vn 0.2903 0.0000 -0.9569
vn 0.4714 0.0000 -0.8819
vn 0.6344 0.0000 -0.7730
vn 0.7730 0.0000 -0.6344
vn 0.8819 0.0000 -0.4714
vn 0.9569 0.0000 -0.2903
vn 0.9952 0.0000 -0.0980
vn 0.9952 0.0000 0.0980
vn 0.9569 0.0000 0.2903
vn 0.8819 0.0000 0.4714
vn 0.7730 0.0000 0.6344
vn 0.6344 0.0000 0.7730
vn 0.4714 0.0000 0.8819
vn 0.2903 0.0000 0.9569
vn 0.0980 0.0000 0.9952
vn -0.0980 0.0000 0.9952
vn -0.2903 0.0000 0.9569
vn -0.4714 0.0000 0.8819
vn -0.6344 0.0000 0.7730
vn -0.7730 0.0000 0.6344
vn -0.8819 0.0000 0.4714
vn -0.9569 0.0000 0.2903
vn -0.9952 0.0000 0.0980
vn -0.9952 0.0000 -0.0980
vn -0.9569 0.0000 -0.2903
vn -0.8819 0.0000 -0.4714
vn -0.7730 0.0000 -0.6344
vn -0.6344 0.0000 -0.7730
vn -0.4714 0.0000 -0.8819
vn -0.2903 0.0000 -0.9569
vn -0.0980 0.0000 -0.9952
vn 0.0000 -1.0000 0.0000
vn 0.0000 1.0000 -0.0000
usemtl None
s off
f 1//1 2//1 4//1 3//1
f 3//2 4//2 6//2 5//2
f 5//3 6//3 8//3 7//3
f 7//4 8//4 10//4 9//4
f 9//5 10//5 12//5 11//5
f 11//6 12//6 14//6 13//6
f 13//7 14//7 16//7 15//7
f 15//8 16//8 18//8 17//8
f 17//9 18//9 20//9 19//9
f 19//10 20//10 22//10 21//10
f 21//11 22//11 24//11 23//11
f 23//12 24//12 26//12 25//12
f 25//13 26//13 28//13 27//13
f 27//14 28//14 30//14 29//14
f 29//15 30//15 32//15 31//15
f 31//16 32//16 34//16 33//16
f 33//17 34//17 36//17 35//17
f 35//18 36//18 38//18 37//18
f 37//19 38//19 40//19 39//19
f 39//20 40//20 42//20 41//20
f 41//21 42//21 44//21 43//21
f 43//22 44//22 46//22 45//22
f 45//23 46//23 48//23 47//23
f 47//24 48//24 50//24 49//24
f 49//25 50//25 52//25 51//25
f 51//26 52//26 54//26 53//26
f 53//27 54//27 56//27 55//27
f 55//28 56//28 58//28 57//28
f 57//29 58//29 60//29 59//29
f 59//30 60//30 62//30 61//30
f 61//31 62//31 64//31 63//31
f 63//32 64//32 2//32 1//32
f 65//17 67//17 68//17 66//17
f 67//18 69//18 70//18 68//18
f 69//19 71//19 72//19 70//19
f 71//20 73//20 74//20 72//20
f 73//21 75//21 76//21 74//21
f 75//22 77//22 78//22 76//22
f 77//23 79//23 80//23 78//23
f 79//24 81//24 82//24 80//24
f 81//25 83//25 84//25 82//25
f 83//26 85//26 86//26 84//26
f 85//27 87//27 88//27 86//27
f 87//28 89//28 90//28 88//28
f 89//29 91//29 92//29 90//29
f 91//30 93//30 94//30 92//30
f 93//31 95//31 96//31 94//31
f 95//32 97//32 98//32 96//32
f 97//1 99//1 100//1 98//1
f 99//2 101//2 102//2 100//2
f 101//3 103//3 104//3 102//3
f 103//4 105//4 106//4 104//4
f 105//5 107//5 108//5 106//5
f 107//6 109//6 110//6 108//6
f 109//7 111//7 112//7 110//7
f 111//8 113//8 114//8 112//8
f 113//9 115//9 116//9 114//9
f 115//10 117//10 118//10 116//10
f 117//11 119//11 120//11 118//11
f 119//12 121//12 122//12 120//12
f 121//13 123//13 124//13 122//13
f 123//14 125//14 126//14 124//14
f 125//15 127//15 128//15 126//15
f 127//16 65//16 66//16 128//16
f 1//33 3//33 67//33 65//33
f 4//34 2//34 66//34 68//34
f 3//33 5//33 69//33 67//33
f 6//34 4//34 68//34 70//34
f 5//33 7//33 71//33 69//33
f 8//34 6//34 70//34 72//34
f 7//33 9//33 73//33 71//33
f 10//34 8//34 72//34 74//34
f 9//33 11//33 75//33 73//33
f 12//34 10//34 74//34 76//34
f 11//33 13//33 77//33 75//33
f 14//34 12//34 76//34 78//34
f 13//33 15//33 79//33 77//33
f 16//34 14//34 78//34 80//34
f 15//33 17//33 81//33 79//33
f 18//34 16//34 80//34 82//34
f 17//33 19//33 83//33 81//33
f 20//34 18//34 82//34 84//34
f 19//33 21//33 85//33 83//33
f 22//34 20//34 84//34 86//34
f 21//33 23//33 87//33 85//33
f 24//34 22//34 86//34 88//34
f 23//33 25//33 89//33 87//33
f 26//34 24//34 88//34 90//34
f 25//33 27//33 91//33 89//33
f 28//34 26//34 90//34 92//34
f 27//33 29//33 93//33 91//33
f 30//34 28//34 92//34 94//34
f 29//33 31//33 95//33 93//33
f 32//34 30//34 94//34 96//34
f 31//33 33//33 97//33 95//33
f 34//34 32//34 96//34 98//34
f 33//33 35//33 99//33 97//33
f 36//34 34//34 98//34 100//34
f 35//33 37//33 101//33 99//33
f 38//34 36//34 100//34 102//34
f 37//33 39//33 103//33 101//33
f 40//34 38//34 102//34 104//34
f 39//33 41//33 105//33 103//33
f 42//34 40//34 104//34 106//34
f 41//33 43//33 107//33 105//33
f 44//34 42//34 106//34 108//34
f 43//33 45//33 109//33 107//33
f 46//34 44//34 108//34 110//34
f 45//33 47//33 111//33 109//33
f 48//34 46//34 110//34 112//34
f 47//33 49//33 113//33 111//33
f 50//34 48//34 112//34 114//34
f 49//33 51//33 115//33 113//33
f 52//34 50//34 114//34 116//34
f 51//33 53//33 117//33 115//33
f 54//34 52//34 116//34 118//34
f 53//33 55//33 119//33 117//33
f 56//34 54//34 118//34 120//34
f 55//33 57//33 121//33 119//33
f 58//34 56//34 120//34 122//34
f 57//33 59//33 123//33 121//33
f 60//34 58//34 122//34 124//34
f 59//33 61//33 125//33 123//33
f 62//34 60//34 124//34 126//34
f 61//33 63//33 127//33 125//33
f 64//34 62//34 126//34 128//34
f 63//33 1//33 65//33 127//33
f 2//34 64//34 128//34 66//34
